<?xml version="1.0" encoding="UTF-8" standalone="no"?>
<!-- Created with Inkscape (http://www.inkscape.org/) -->

<svg
   xmlns:dc="http://purl.org/dc/elements/1.1/"
   xmlns:cc="http://creativecommons.org/ns#"
   xmlns:rdf="http://www.w3.org/1999/02/22-rdf-syntax-ns#"
   xmlns:svg="http://www.w3.org/2000/svg"
   xmlns="http://www.w3.org/2000/svg"
   xmlns:xlink="http://www.w3.org/1999/xlink"
   xmlns:sodipodi="http://sodipodi.sourceforge.net/DTD/sodipodi-0.dtd"
   xmlns:inkscape="http://www.inkscape.org/namespaces/inkscape"
   width="48"
   height="48"
   id="svg3196"
   version="1.1"
   inkscape:version="0.47 r22583"
   sodipodi:docname="Nuevo documento 3">
  <defs
     id="defs3198">
    <inkscape:perspective
       sodipodi:type="inkscape:persp3d"
       inkscape:vp_x="0 : 526.18109 : 1"
       inkscape:vp_y="0 : 1000 : 0"
       inkscape:vp_z="744.09448 : 526.18109 : 1"
       inkscape:persp3d-origin="372.04724 : 350.78739 : 1"
       id="perspective3204" />
    <inkscape:perspective
       id="perspective3135"
       inkscape:persp3d-origin="0.5 : 0.33333333 : 1"
       inkscape:vp_z="1 : 0.5 : 1"
       inkscape:vp_y="0 : 1000 : 0"
       inkscape:vp_x="0 : 0.5 : 1"
       sodipodi:type="inkscape:persp3d" />
    <linearGradient
       inkscape:collect="always"
       xlink:href="#linearGradient7490"
       id="linearGradient7689"
       gradientUnits="userSpaceOnUse"
       gradientTransform="matrix(0.3969511,0,0,0.39105055,58.313323,386.84503)"
       x1="585.8584"
       y1="780.72931"
       x2="585.8584"
       y2="731.02856" />
    <linearGradient
       id="linearGradient7490"
       inkscape:collect="always">
      <stop
         id="stop7492"
         offset="0"
         style="stop-color:#9a9a9a;stop-opacity:1" />
      <stop
         id="stop7494"
         offset="1"
         style="stop-color:#dcdcdc;stop-opacity:1" />
    </linearGradient>
    <linearGradient
       inkscape:collect="always"
       xlink:href="#linearGradient5392"
       id="linearGradient7691"
       gradientUnits="userSpaceOnUse"
       gradientTransform="matrix(0.3969511,0,0,0.39105055,110.41315,458.74945)"
       x1="425.07034"
       y1="626.73676"
       x2="425.07034"
       y2="566.38403" />
    <linearGradient
       inkscape:collect="always"
       id="linearGradient5392">
      <stop
         style="stop-color:#ffffff;stop-opacity:1"
         offset="0"
         id="stop5394" />
      <stop
         style="stop-color:#ffffff;stop-opacity:0;"
         offset="1"
         id="stop5396" />
    </linearGradient>
    <linearGradient
       inkscape:collect="always"
       xlink:href="#linearGradient7056"
       id="linearGradient7693"
       gradientUnits="userSpaceOnUse"
       x1="553.62726"
       y1="837.66888"
       x2="566.27209"
       y2="859.39319" />
    <linearGradient
       inkscape:collect="always"
       id="linearGradient7056">
      <stop
         style="stop-color:#ffffff;stop-opacity:1;"
         offset="0"
         id="stop7058" />
      <stop
         style="stop-color:#ffffff;stop-opacity:0;"
         offset="1"
         id="stop7060" />
    </linearGradient>
    <linearGradient
       inkscape:collect="always"
       xlink:href="#linearGradient7056"
       id="linearGradient7695"
       gradientUnits="userSpaceOnUse"
       x1="561.60071"
       y1="832.00104"
       x2="565.63544"
       y2="859.57166" />
    <linearGradient
       inkscape:collect="always"
       xlink:href="#linearGradient7056"
       id="linearGradient7697"
       gradientUnits="userSpaceOnUse"
       x1="555.22198"
       y1="840.82355"
       x2="563.02246"
       y2="859.42725" />
    <radialGradient
       inkscape:collect="always"
       xlink:href="#linearGradient5296"
       id="radialGradient7699"
       gradientUnits="userSpaceOnUse"
       gradientTransform="matrix(0.2059403,1.3123736,-1.6380034,0.2570388,837.33932,157.13454)"
       cx="133.12892"
       cy="446.65781"
       fx="133.12892"
       fy="446.65781"
       r="27.577164" />
    <linearGradient
       id="linearGradient5296"
       inkscape:collect="always">
      <stop
         id="stop5298"
         offset="0"
         style="stop-color:#4ca4dd;stop-opacity:1" />
      <stop
         style="stop-color:#1279bb;stop-opacity:1;"
         offset="0.55471057"
         id="stop5300" />
      <stop
         id="stop5302"
         offset="1"
         style="stop-color:#05568a;stop-opacity:1" />
    </linearGradient>
    <linearGradient
       inkscape:collect="always"
       xlink:href="#linearGradient7088"
       id="linearGradient7701"
       gradientUnits="userSpaceOnUse"
       x1="171.40753"
       y1="526.02496"
       x2="127.72591"
       y2="432.98026" />
    <linearGradient
       inkscape:collect="always"
       id="linearGradient7088">
      <stop
         style="stop-color:#ffffff;stop-opacity:0.54285717"
         offset="0"
         id="stop7090" />
      <stop
         style="stop-color:#ffffff;stop-opacity:0;"
         offset="1"
         id="stop7092" />
    </linearGradient>
    <linearGradient
       y2="432.98026"
       x2="127.72591"
       y1="526.02496"
       x1="171.40753"
       gradientUnits="userSpaceOnUse"
       id="linearGradient3184"
       xlink:href="#linearGradient7088"
       inkscape:collect="always" />
  </defs>
  <sodipodi:namedview
     id="base"
     pagecolor="#ffffff"
     bordercolor="#666666"
     borderopacity="1.0"
     inkscape:pageopacity="0.0"
     inkscape:pageshadow="2"
     inkscape:zoom="2.8284271"
     inkscape:cx="5.8567655"
     inkscape:cy="41.650552"
     inkscape:document-units="px"
     inkscape:current-layer="layer1"
     showgrid="false"
     inkscape:showpageshadow="false"
     inkscape:window-width="1920"
     inkscape:window-height="1034"
     inkscape:window-x="0"
     inkscape:window-y="24"
     inkscape:window-maximized="1" />
  <metadata
     id="metadata3201">
    <rdf:RDF>
      <cc:Work
         rdf:about="">
        <dc:format>image/svg+xml</dc:format>
        <dc:type
           rdf:resource="http://purl.org/dc/dcmitype/StillImage" />
        <dc:title></dc:title>
      </cc:Work>
    </rdf:RDF>
  </metadata>
  <g
     inkscape:label="Capa 1"
     inkscape:groupmode="layer"
     id="layer1"
     transform="translate(0,-1004.3622)">
    <g
       transform="translate(-272.32281,340.43607)"
       id="g7669"
       inkscape:export-filename="/home/pgauna/Escritorio/boceto.png"
       inkscape:export-xdpi="90"
       inkscape:export-ydpi="90">
      <path
         sodipodi:nodetypes="csscsccscsscc"
         id="path7671"
         d="m 289.06596,678.22657 c -1.01003,-0.70951 -2.23752,-1.13649 -3.57256,-1.13649 -3.41042,0 -6.17755,2.726 -6.17755,6.08573 0,0.14409 0.0148,0.28612 0.0249,0.42771 -3.54164,0.69314 -6.20237,2.97371 -6.20237,6.67229 0,4.21271 3.45188,6.03685 7.72815,6.03685 l 30.91256,0 c 4.27627,0 7.72815,-1.82414 7.72815,-6.03685 0,-3.69858 -2.66073,-5.97915 -6.20237,-6.67229 0.01,-0.14159 0.0249,-0.28362 0.0249,-0.42771 0,-3.35973 -2.76713,-6.08573 -6.17755,-6.08573 -1.33504,0 -2.56253,0.42698 -3.57256,1.13649 -3.19226,-8.13009 -11.98129,-7.63949 -14.51353,0 z"
         style="color:#000000;fill:url(#linearGradient7689);fill-opacity:1;fill-rule:nonzero;stroke:#5b5b5b;stroke-width:1;stroke-miterlimit:4;stroke-opacity:1;stroke-dasharray:none;marker:none;visibility:visible;display:inline;overflow:visible;enable-background:accumulate" />
      <path
         sodipodi:nodetypes="cccccccc"
         id="path7673"
         d="m 303.08726,679.99276 c 4.00933,-3.64102 9.88298,-1.21283 8.95825,4.52502 7.78507,-0.0192 9.69147,10.87527 -0.54289,10.87527 l -30.16135,0 c -10.36069,0.16947 -8.58153,-10.25834 -0.79702,-10.85503 -0.75682,-5.61539 5.00462,-8.32939 9.15548,-4.40343 1.49662,-7.2814 9.60771,-10.39999 13.38753,-0.14184 l 0,10e-6 z"
         style="font-size:medium;font-style:normal;font-variant:normal;font-weight:normal;font-stretch:normal;text-indent:0;text-align:start;text-decoration:none;line-height:normal;letter-spacing:normal;word-spacing:normal;text-transform:none;direction:ltr;block-progression:tb;writing-mode:lr-tb;text-anchor:start;color:#000000;fill:none;stroke:url(#linearGradient7691);stroke-width:1;stroke-miterlimit:6;stroke-opacity:1;stroke-dasharray:none;marker:none;visibility:visible;display:inline;overflow:visible;enable-background:accumulate;font-family:Acidic;-inkscape-font-specification:Acidic" />
      <path
         transform="matrix(0.51651467,0,0,0.50883683,-7.2362187,246.75444)"
         d="m 576.875,857.36218 c 0,5.72996 -4.64505,10.375 -10.375,10.375 -5.72995,0 -10.375,-4.64504 -10.375,-10.375 0,-5.72995 4.64505,-10.375 10.375,-10.375 5.72995,0 10.375,4.64505 10.375,10.375 z"
         sodipodi:ry="10.375"
         sodipodi:rx="10.375"
         sodipodi:cy="857.36218"
         sodipodi:cx="566.5"
         id="path7675"
         style="color:#000000;fill:url(#linearGradient7693);fill-opacity:1;fill-rule:nonzero;stroke:none;stroke-width:3;marker:none;visibility:visible;display:inline;overflow:visible;enable-background:accumulate"
         sodipodi:type="arc" />
      <path
         transform="matrix(0.51651467,0,0,0.50883683,14.546471,246.75444)"
         d="m 576.875,857.36218 c 0,5.72996 -4.64505,10.375 -10.375,10.375 -5.72995,0 -10.375,-4.64504 -10.375,-10.375 0,-5.72995 4.64505,-10.375 10.375,-10.375 5.72995,0 10.375,4.64505 10.375,10.375 z"
         sodipodi:ry="10.375"
         sodipodi:rx="10.375"
         sodipodi:cy="857.36218"
         sodipodi:cx="566.5"
         id="path7677"
         style="color:#000000;fill:url(#linearGradient7695);fill-opacity:1;fill-rule:nonzero;stroke:none;stroke-width:3;marker:none;visibility:visible;display:inline;overflow:visible;enable-background:accumulate"
         sodipodi:type="arc" />
      <path
         sodipodi:type="arc"
         style="color:#000000;fill:url(#linearGradient7697);fill-opacity:1;fill-rule:nonzero;stroke:none;stroke-width:3;marker:none;visibility:visible;display:inline;overflow:visible;enable-background:accumulate"
         id="path7679"
         sodipodi:cx="566.5"
         sodipodi:cy="857.36218"
         sodipodi:rx="10.375"
         sodipodi:ry="10.375"
         d="m 576.875,857.36218 c 0,5.72996 -4.64505,10.375 -10.375,10.375 -5.72995,0 -10.375,-4.64504 -10.375,-10.375 0,-5.72995 4.64505,-10.375 10.375,-10.375 5.72995,0 10.375,4.64505 10.375,10.375 z"
         transform="matrix(0.64564334,0,0,0.70200638,-69.620311,78.351926)" />
      <path
         id="path7681"
         d="m 297.27836,683.27616 c -5.96824,0 -10.80451,4.42808 -10.80451,9.89257 0,1.27887 0.27423,2.5011 0.75668,3.62312 l 20.10806,0 c 0.48245,-1.12202 0.74429,-2.34425 0.74429,-3.62312 0,-5.46449 -4.83629,-9.89257 -10.80452,-9.89257 z"
         style="color:#000000;fill:#000000;fill-opacity:0.18131869;fill-rule:nonzero;stroke:none;stroke-width:3.50561786;marker:none;visibility:visible;display:inline;overflow:visible;enable-background:accumulate" />
      <path
         inkscape:export-ydpi="90"
         inkscape:export-xdpi="90"
         inkscape:export-filename="/home/pgauna/Escritorio/iconos.png"
         sodipodi:type="arc"
         style="color:#000000;fill:url(#radialGradient7699);fill-opacity:1;fill-rule:nonzero;stroke:none;stroke-width:3.50561786;marker:none;visibility:visible;display:inline;overflow:visible;enable-background:accumulate"
         id="path7683"
         sodipodi:cx="145.664"
         sodipodi:cy="457.76031"
         sodipodi:rx="27.577164"
         sodipodi:ry="27.577164"
         d="m 173.24117,457.76031 c 0,15.23045 -12.34672,27.57717 -27.57717,27.57717 -15.23045,0 -27.57716,-12.34672 -27.57716,-27.57717 0,-15.23044 12.34671,-27.57716 27.57716,-27.57716 15.23045,0 27.57717,12.34672 27.57717,27.57716 z"
         transform="matrix(0.39186192,0,0,0.38603703,238.6253,516.68248)" />
      <path
         id="path7685"
         d="m 296.81849,684.94335 c -1.1438,0 -2.07104,0.91345 -2.07104,2.04026 0,1.1268 0.92724,2.04025 2.07104,2.04025 1.1438,0 2.07104,-0.91345 2.07104,-2.04025 0,-1.12681 -0.92724,-2.04026 -2.07104,-2.04026 z m -1.79274,5.80838 c -1.05815,0.005 -2.31051,0.32517 -3.35898,0.74598 0,0.34502 0.0164,0.59823 0.006,0.63754 1.54963,-0.4816 2.47433,-0.0785 2.427,0.61207 -0.2133,3.11308 -2.00777,6.29905 -1.34617,7.62543 0.8908,1.786 4.5304,1.17322 5.79892,0.17857 -0.0259,-0.68859 -0.0777,-0.71412 -0.0777,-0.71412 -1.65682,0.40811 -2.05926,0.37363 -2.30402,-0.25499 -0.72486,-1.86173 1.91571,-5.12617 1.06141,-7.6765 -0.28488,-0.85039 -1.1488,-1.1594 -2.20695,-1.15398 z"
         style="color:#000000;fill:#ffffff;fill-opacity:1;fill-rule:nonzero;stroke:none;stroke-width:1;marker:none;visibility:visible;display:inline;overflow:visible;enable-background:accumulate" />
      <path
         transform="matrix(0.34148225,0,0,0.33640622,245.96382,539.40149)"
         d="m 173.24117,457.76031 c 0,15.23045 -12.34672,27.57717 -27.57717,27.57717 -15.23045,0 -27.57716,-12.34672 -27.57716,-27.57717 0,-15.23044 12.34671,-27.57716 27.57716,-27.57716 15.23045,0 27.57717,12.34672 27.57717,27.57716 z"
         sodipodi:ry="27.577164"
         sodipodi:rx="27.577164"
         sodipodi:cy="457.76031"
         sodipodi:cx="145.664"
         id="path7687"
         style="color:#000000;fill:none;stroke:url(#linearGradient3184);stroke-width:2.95042038;stroke-miterlimit:4;stroke-dasharray:none;marker:none;visibility:visible;display:inline;overflow:visible;enable-background:accumulate"
         sodipodi:type="arc"
         inkscape:export-filename="/home/pgauna/Escritorio/iconos.png"
         inkscape:export-xdpi="90"
         inkscape:export-ydpi="90" />
    </g>
  </g>
</svg>
